<svg xmlns="http://www.w3.org/2000/svg" id="shopping-cart" enable-background="new 0 0 512 512" viewBox="0 0 512 512">
  <radialGradient id="SVGID_1_" cx="257" cy="254" r="1048.948" gradientUnits="userSpaceOnUse">
    <stop offset="0" stop-color="#ee3e3e"></stop>
    <stop offset=".616" stop-color="#cb3535"></stop>
    <stop offset="1" stop-color="#b32f2f"></stop>
  </radialGradient>
  <circle cx="256" cy="256" r="217.6" fill="url(#SVGID_1_)"></circle>
  <path fill="#b32f2f" d="M386.8 211c-1.5-2-3.9-3.2-6.4-3.2H198.1l-14-55.3c-.9-3.6-4.1-6-7.8-6h-16c-4.4 0-8 3.6-8 8s3.6 8 8 8h9.8L208 312.2l0 .1c0 0 0 0 0 0l0 0c0 0 0 0 0 0 .1.4.3.9.4 1.3 0 0 0 0 0 0 .2.4.4.8.6 1.1 0 0 0 0 .1.1.2.3.5.7.8 1 0 0 0 0 .1.1.3.3.6.6.9.8 0 0 0 0 .1 0 .3.2.7.5 1 .7 0 0 0 0 0 0 .4.2.7.4 1.1.5 0 0 0 0 .1 0 .4.1.8.2 1.2.3 0 0 0 0 .1 0 .4.1.8.1 1.2.1 0 0 0 0 .1 0 0 0 0 0 0 0h136.6c3.5 0 6.7-2.3 7.7-5.7l28.1-94.6C388.8 215.6 388.3 213 386.8 211zM346.4 302.4H222l-19.7-78.6h167.4L346.4 302.4zM319 325.8c-13.9 0-25.3 11.3-25.3 25.3s11.3 25.3 25.3 25.3 25.3-11.3 25.3-25.3S333 325.8 319 325.8zM319 360.3c-5.1 0-9.3-4.2-9.3-9.3 0-5.1 4.2-9.3 9.3-9.3 5.1 0 9.3 4.2 9.3 9.3C328.3 356.1 324.1 360.3 319 360.3zM245.8 325.8c-13.9 0-25.3 11.3-25.3 25.3s11.3 25.3 25.3 25.3c13.9 0 25.3-11.3 25.3-25.3S259.7 325.8 245.8 325.8zM245.8 360.3c-5.1 0-9.3-4.2-9.3-9.3 0-5.1 4.2-9.3 9.3-9.3 5.1 0 9.3 4.2 9.3 9.3C255 356.1 250.9 360.3 245.8 360.3z"></path>
  <g>
    <radialGradient id="SVGID_2_" cx="269.55" cy="257.077" r="598.688" gradientUnits="userSpaceOnUse">
      <stop offset="0" stop-color="#f8ede7"></stop>
      <stop offset=".495" stop-color="#f6ebe5"></stop>
      <stop offset=".673" stop-color="#efe5df"></stop>
      <stop offset=".8" stop-color="#e4dad4"></stop>
      <stop offset=".902" stop-color="#d3cac4"></stop>
      <stop offset=".99" stop-color="#bdb5b0"></stop>
      <stop offset="1" stop-color="#bab2ad"></stop>
    </radialGradient>
    <path fill="url(#SVGID_2_)" d="M371.2,211c-1.5-2-3.9-3.2-6.4-3.2H182.4l-14-55.3c-0.9-3.6-4.1-6-7.8-6h-16c-4.4,0-8,3.6-8,8s3.6,8,8,8h9.8
		l37.8,149.9l0,0.1c0,0,0,0,0,0l0,0c0,0,0,0,0,0c0.1,0.4,0.3,0.9,0.4,1.3c0,0,0,0,0,0c0.2,0.4,0.4,0.8,0.6,1.1c0,0,0,0,0.1,0.1
		c0.2,0.3,0.5,0.7,0.8,1c0,0,0,0,0.1,0.1c0.3,0.3,0.6,0.6,0.9,0.8c0,0,0,0,0.1,0c0.3,0.2,0.7,0.5,1,0.7c0,0,0,0,0,0
		c0.4,0.2,0.7,0.4,1.1,0.5c0,0,0,0,0.1,0c0.4,0.1,0.8,0.2,1.2,0.3c0,0,0,0,0.1,0c0.4,0.1,0.8,0.1,1.2,0.1c0,0,0,0,0.1,0c0,0,0,0,0,0
		h136.6c3.5,0,6.7-2.3,7.7-5.7l28.1-94.6C373.2,215.6,372.7,213,371.2,211z M330.8,302.4H206.4l-19.7-78.6h167.4L330.8,302.4z"></path>
    <radialGradient id="SVGID_3_" cx="269.55" cy="257.077" r="598.688" gradientUnits="userSpaceOnUse">
      <stop offset="0" stop-color="#f8ede7"></stop>
      <stop offset=".495" stop-color="#f6ebe5"></stop>
      <stop offset=".673" stop-color="#efe5df"></stop>
      <stop offset=".8" stop-color="#e4dad4"></stop>
      <stop offset=".902" stop-color="#d3cac4"></stop>
      <stop offset=".99" stop-color="#bdb5b0"></stop>
      <stop offset="1" stop-color="#bab2ad"></stop>
    </radialGradient>
    <path fill="url(#SVGID_3_)" d="M303.4,325.8c-13.9,0-25.3,11.3-25.3,25.3s11.3,25.3,25.3,25.3s25.3-11.3,25.3-25.3S317.3,325.8,303.4,325.8z
		 M303.4,360.3c-5.1,0-9.3-4.2-9.3-9.3c0-5.1,4.2-9.3,9.3-9.3c5.1,0,9.3,4.2,9.3,9.3C312.6,356.1,308.5,360.3,303.4,360.3z"></path>
    <radialGradient id="SVGID_4_" cx="269.55" cy="257.077" r="598.688" gradientUnits="userSpaceOnUse">
      <stop offset="0" stop-color="#f8ede7"></stop>
      <stop offset=".495" stop-color="#f6ebe5"></stop>
      <stop offset=".673" stop-color="#efe5df"></stop>
      <stop offset=".8" stop-color="#e4dad4"></stop>
      <stop offset=".902" stop-color="#d3cac4"></stop>
      <stop offset=".99" stop-color="#bdb5b0"></stop>
      <stop offset="1" stop-color="#bab2ad"></stop>
    </radialGradient>
    <path fill="url(#SVGID_4_)" d="M230.1,325.8c-13.9,0-25.3,11.3-25.3,25.3s11.3,25.3,25.3,25.3s25.3-11.3,25.3-25.3S244.1,325.8,230.1,325.8z
		 M230.1,360.3c-5.1,0-9.3-4.2-9.3-9.3c0-5.1,4.2-9.3,9.3-9.3c5.1,0,9.3,4.2,9.3,9.3C239.4,356.1,235.2,360.3,230.1,360.3z"></path>
  </g>
</svg>
